<svg fill="#03a696" width="800px" height="800px" viewBox="0 0 32 32" version="1.1" xmlns="http://www.w3.org/2000/svg">
<title>gimp</title>
<path d="M19.696 17.755l-0.916 0.451 0.075 0.062 0.247 0.196 2.511 2.022q1.205 0.964 2.439 1.891c-0.007 0.037-0.011 0.079-0.011 0.122 0 0.013 0 0.026 0.001 0.039l-0-0.002 0.325-0.050 0.129 0.19 2.895 1.839c-0.045 0.176-0.070 0.378-0.070 0.586 0 0.454 0.122 0.88 0.335 1.246l-0.006-0.012c0.795 1.204 1.945 2.119 3.299 2.602l0.046 0.014c-0.963-2.459-0.261-4.46-2.162-5.165-0.133-0.058-0.287-0.091-0.45-0.091-0.12 0-0.236 0.018-0.344 0.052l0.008-0.002-2.558-2.368-0.217-0.065-0.031-0.327c-0.058 0.023-0.108 0.048-0.155 0.076l0.005-0.003c-0.382-0.325-0.858-0.671-1.362-1.018-1.704-1.043-2.82-1.625-4.034-2.287zM20.384 17.63c-0.060 0.066-0.124 0.126-0.192 0.181l-0.003 0.003 0.262 0.144c-0.016-0.124-0.040-0.235-0.071-0.343l0.004 0.015zM10.062 11.426c-0.574 0.007-1.037 0.474-1.037 1.050 0 0.58 0.47 1.050 1.050 1.050s1.050-0.47 1.050-1.050c0-0.198-0.055-0.383-0.15-0.54l0.003 0.005c-0.186-0.31-0.521-0.514-0.903-0.514-0.004 0-0.009 0-0.013 0h0.001zM3.115 11.273h0.002q0.013-0 0.026 0c0.001 0 0.002 0 0.003 0 0.331 0 0.631 0.132 0.851 0.347l-0-0c0.218 0.213 0.352 0.509 0.352 0.838s-0.135 0.625-0.353 0.838l-0 0c-0.219 0.214-0.52 0.346-0.851 0.346s-0.633-0.133-0.852-0.348l0 0c-0.217-0.213-0.352-0.51-0.352-0.838 0-0.323 0.13-0.615 0.341-0.827l-0 0c0.214-0.215 0.507-0.35 0.832-0.358l0.001-0zM16.789 10.474c-0 0-0.001 0-0.001 0-0.914 0-1.656 0.741-1.656 1.656s0.741 1.656 1.656 1.656c0.914 0 1.656-0.741 1.656-1.656 0-0.304-0.082-0.59-0.225-0.835l0.004 0.008c-0.291-0.499-0.824-0.829-1.433-0.829h-0zM9.571 9.872c0.023-0.001 0.050-0.001 0.077-0.001 1.243 0 2.256 0.985 2.3 2.218l0 0.004c-0.046 1.235-1.059 2.219-2.301 2.219-0.027 0-0.054-0-0.081-0.001l0.004 0c-0.023 0.001-0.049 0.001-0.076 0.001-1.242 0-2.254-0.984-2.298-2.215l-0-0.004c0.044-1.237 1.058-2.223 2.302-2.223 0.026 0 0.051 0 0.076 0.001l-0.004-0zM25.807 3.049c-0.132-0.020-0.285 0.134-0.405 0.496-0.196 0.587-1.341 4.003-6.878 5.406 0.74 0.62 1.21 1.54 1.22 2.571v0.002c-0.072 1.949-1.669 3.501-3.628 3.501-0.042 0-0.085-0.001-0.127-0.002l0.006 0c-0.035 0.001-0.076 0.002-0.118 0.002-1.96 0-3.557-1.552-3.628-3.494l-0-0.007c0.003-0.764 0.264-1.467 0.699-2.027l-0.006 0.008c-2.444-0.335-4.484-1.81-5.591-3.863l-0.020-0.040-0.12 5.202c0.004 0.075 0.007 0.163 0.007 0.252 0 0.646-0.126 1.262-0.356 1.825l0.012-0.032-0.063-0.090c-0.446-0.624-1.002-1.138-1.643-1.525l-0.025-0.014c-0.532-0.331-1.178-0.528-1.87-0.528-0.008 0-0.016 0-0.024 0h0.001c-0.476 0.010-0.913 0.164-1.273 0.422l0.007-0.005c-0.603 0.484-0.987 1.222-0.987 2.049 0 0.059 0.002 0.117 0.006 0.175l-0-0.008c0.040 1.097 0.416 2.099 1.027 2.914l-0.010-0.013c0.508 0.716 1.17 1.291 1.939 1.685l0.030 0.014c0.423 0.229 0.926 0.363 1.461 0.363 0.242 0 0.477-0.028 0.703-0.080l-0.021 0.004c3.745 2.774 10.599 5.184 15.284 2.356l-2.53-2.036c-0.657 0.176-1.412 0.278-2.19 0.278-1.191 0-2.327-0.237-3.363-0.668l0.058 0.021c0.712 0.235 1.531 0.37 2.381 0.37 1.593 0 3.076-0.475 4.314-1.29l-0.029 0.018c-0.247-0.268-0.541-0.489-0.87-0.65l-0.017-0.008c0.456 0.101 0.85 0.319 1.163 0.621l-0.001-0.001c0.17 0.218 0.273 0.495 0.273 0.796 0 0.007-0 0.014-0 0.021v-0.001c0.691 0.372 1.478 0.82 2.343 1.327 2.574-2.574 4.065-7.414 3.149-15.767-0.044-0.336-0.159-0.531-0.291-0.552z"></path>
</svg>