<?xml version="1.0" encoding="utf-8"?>

<!DOCTYPE svg PUBLIC "-//W3C//DTD SVG 1.1//EN" "http://www.w3.org/Graphics/SVG/1.1/DTD/svg11.dtd">
<!-- Uploaded to: SVG Repo, www.svgrepo.com, Generator: SVG Repo Mixer Tools -->
<svg version="1.1" id="_x32_" xmlns="http://www.w3.org/2000/svg" xmlns:xlink="http://www.w3.org/1999/xlink" 
	 viewBox="0 0 512 512"  xml:space="preserve">
<style type="text/css">
	.st0{fill:#000000;}
</style>
<g>
	<polygon class="st0" points="0,129.602 0,237.078 207.336,285.867 207.336,254.938 303.336,254.938 303.336,285.867 512,236.766 
		512,129.602 	"/>
	<polygon class="st0" points="303.336,382.938 207.336,382.938 207.336,318.586 0,269.805 0,505.602 512,505.602 512,269.492 
		303.336,318.586 	"/>
	<rect x="231.336" y="278.938" class="st0" width="48" height="80"/>
	<path class="st0" d="M180.398,56.805c0.008-2.062,0.774-3.726,2.11-5.102c1.375-1.336,3.039-2.094,5.094-2.11h136.797
		c2.054,0.016,3.719,0.774,5.094,2.11c1.336,1.375,2.094,3.039,2.11,5.102v36h43.195v-36c0.008-13.851-5.672-26.586-14.766-35.649
		c-9.046-9.078-21.781-14.766-35.633-14.758H187.602c-13.851-0.008-26.586,5.68-35.641,14.758
		c-9.086,9.063-14.774,21.798-14.758,35.649v36h43.195V56.805z"/>
</g>
</svg>