<?xml version="1.0" ?><!-- Uploaded to: SVG Repo, www.svgrepo.com, Generator: SVG Repo Mixer Tools -->
<svg width="800px" height="800px" viewBox="0 0 48 48" id="Layer_1" version="1.1" xml:space="preserve" xmlns="http://www.w3.org/2000/svg" xmlns:xlink="http://www.w3.org/1999/xlink"><style type="text/css">
	.st0{fill:#010101;}
</style><path class="st0" d="M41,8.322H7c-0.276,0-0.5,0.224-0.5,0.5v24c0,0.276,0.224,0.5,0.5,0.5h13.125  c-0.088,0.327-0.055,0.674,0.114,0.983c0.295,0.542,0.873,0.843,1.511,0.666v4.206c0,0.199,0.118,0.379,0.301,0.458  c0.181,0.079,0.394,0.043,0.54-0.093L24,38.23l1.409,1.313c0.095,0.088,0.217,0.134,0.341,0.134c0.067,0,0.136-0.014,0.199-0.042  c0.183-0.08,0.301-0.259,0.301-0.458V34.97c0.321,0.083,0.659,0.051,0.958-0.112c0.445-0.243,0.722-0.703,0.722-1.201  c0-0.109-0.021-0.223-0.053-0.335H41c0.276,0,0.5-0.224,0.5-0.5v-24C41.5,8.546,41.276,8.322,41,8.322z M24.341,37.182  c-0.191-0.179-0.49-0.179-0.682,0l-0.909,0.847v-2.846c0.194,0.53,0.676,0.896,1.25,0.896c0.573,0,1.055-0.365,1.25-0.897v2.847  L24.341,37.182z M26.729,33.98c-0.112,0.062-0.229,0.054-0.352-0.025c-0.172-0.109-0.38-0.178-0.585-0.196l-0.001,0  c-0.051-0.007-0.104-0.012-0.132-0.012c-0.641,0-1.183,0.433-1.317,1.049c-0.094,0.414-0.593,0.411-0.685,0.003  c-0.136-0.62-0.678-1.053-1.318-1.053c-0.027,0-0.076,0.005-0.126,0.012c-0.002,0-0.004,0-0.006,0.001l-0.001,0  c-0.022,0.002-0.043,0.01-0.065,0.013c-0.015,0.003-0.036,0.006-0.045,0.009c-0.001,0-0.001,0.001-0.002,0.001  c-0.167,0.029-0.331,0.083-0.463,0.166c-0.096,0.058-0.169,0.079-0.202,0.079c-0.121,0-0.247-0.082-0.313-0.203  c-0.063-0.116-0.059-0.233,0.01-0.34c0.129-0.193,0.197-0.405,0.203-0.63c0.007-0.041,0.011-0.079,0.011-0.107  c0-0.625-0.429-1.166-1.049-1.317c-0.245-0.056-0.281-0.239-0.281-0.343c0-0.064,0.02-0.279,0.292-0.335  c0.265-0.067,0.49-0.215,0.674-0.417c0.014-0.012,0.028-0.024,0.041-0.038c0.01-0.012,0.024-0.019,0.034-0.032  c0.021-0.028,0.03-0.062,0.049-0.092c0.004-0.009,0.01-0.016,0.013-0.025c0.139-0.224,0.227-0.473,0.227-0.722  c0-0.26-0.074-0.52-0.201-0.717c-0.063-0.106-0.068-0.167-0.068-0.183c0-0.128,0.081-0.258,0.201-0.325  c0.117-0.063,0.232-0.055,0.328,0.002c0.208,0.148,0.457,0.223,0.74,0.223c0.639,0,1.181-0.428,1.318-1.044  c0.057-0.258,0.258-0.286,0.342-0.286s0.285,0.028,0.343,0.292c0.098,0.42,0.396,0.77,0.8,0.935  c0.406,0.167,0.866,0.127,1.226-0.099c0.231-0.142,0.422-0.042,0.518,0.131c0.062,0.112,0.056,0.227-0.017,0.34  c-0.135,0.21-0.209,0.47-0.209,0.73c0,0.245,0.088,0.49,0.226,0.718c0.006,0.015,0.015,0.027,0.022,0.041  c0.019,0.029,0.027,0.062,0.049,0.091c0.009,0.012,0.023,0.018,0.032,0.029c0.007,0.008,0.015,0.014,0.023,0.021  c0.181,0.205,0.412,0.357,0.686,0.425c0.008,0.002,0.015,0.003,0.021,0.005c0.251,0.051,0.271,0.266,0.271,0.33  c0,0.104-0.036,0.287-0.288,0.344c-0.613,0.15-1.042,0.691-1.042,1.316c0,0.001,0,0.003,0,0.004c0,0,0,0.001,0,0.001  c0,0.006,0.003,0.017,0.003,0.024c0.001,0.024,0.003,0.048,0.008,0.078c0,0.012,0.005,0.022,0.006,0.034  c0.001,0.006,0.001,0.01,0.003,0.016c0.014,0.206,0.075,0.402,0.19,0.574c0.039,0.061,0.061,0.138,0.061,0.18  C26.93,33.785,26.85,33.915,26.729,33.98z M27.673,29.462c-0.001-0.012-0.013-0.024-0.013-0.035c0-0.068,0.02-0.141,0.051-0.191  c0.269-0.42,0.288-0.928,0.052-1.359c-0.362-0.66-1.187-0.944-1.92-0.502c-0.135,0.085-0.269,0.046-0.32,0.025  c-0.05-0.021-0.17-0.085-0.204-0.229c-0.139-0.642-0.669-1.074-1.318-1.074s-1.18,0.432-1.318,1.07  c-0.04,0.178-0.205,0.259-0.342,0.259c-0.108,0-0.147-0.028-0.184-0.053c-0.426-0.267-0.937-0.285-1.368-0.047  c-0.442,0.245-0.718,0.704-0.718,1.2c0,0.229,0.071,0.464,0.219,0.71c0.031,0.049,0.051,0.122,0.051,0.19  c0,0.012-0.011,0.023-0.013,0.035h-7.871c-0.208-1.161-1.126-2.078-2.286-2.286V14.468c1.16-0.208,2.078-1.125,2.286-2.286h23.088  c0.208,1.161,1.126,2.078,2.286,2.286v12.708c-1.16,0.208-2.078,1.125-2.286,2.286H27.673z M40.5,32.322H28.134  c0.513-0.204,0.856-0.666,0.856-1.235c0-0.232-0.07-0.437-0.169-0.625H36c0.276,0,0.5-0.224,0.5-0.5c0-1.009,0.821-1.83,1.83-1.83  c0.276,0,0.5-0.224,0.5-0.5v-13.62c0-0.276-0.224-0.5-0.5-0.5c-1.009,0-1.83-0.821-1.83-1.83c0-0.276-0.224-0.5-0.5-0.5H12  c-0.276,0-0.5,0.224-0.5,0.5c0,1.009-0.821,1.83-1.83,1.83c-0.276,0-0.5,0.224-0.5,0.5v13.62c0,0.276,0.224,0.5,0.5,0.5  c1.009,0,1.83,0.821,1.83,1.83c0,0.276,0.224,0.5,0.5,0.5h7.178c-0.099,0.188-0.169,0.393-0.169,0.625  c0,0.57,0.344,1.033,0.854,1.235H7.5v-23h33V32.322z"/><path class="st0" d="M14.438,19.593h4.125c0.276,0,0.5-0.224,0.5-0.5v-4.125c0-0.276-0.224-0.5-0.5-0.5h-4.125  c-0.276,0-0.5,0.224-0.5,0.5v4.125C13.938,19.37,14.161,19.593,14.438,19.593z M14.938,15.468h3.125v3.125h-3.125V15.468z"/><path class="st0" d="M33.563,14.468H22.188c-0.276,0-0.5,0.224-0.5,0.5s0.224,0.5,0.5,0.5h11.375c0.276,0,0.5-0.224,0.5-0.5  S33.839,14.468,33.563,14.468z"/><path class="st0" d="M33.563,18.593H22.188c-0.276,0-0.5,0.224-0.5,0.5s0.224,0.5,0.5,0.5h11.375c0.276,0,0.5-0.224,0.5-0.5  S33.839,18.593,33.563,18.593z"/><path class="st0" d="M33.563,22.766H14.438c-0.276,0-0.5,0.224-0.5,0.5s0.224,0.5,0.5,0.5h19.125c0.276,0,0.5-0.224,0.5-0.5  S33.839,22.766,33.563,22.766z"/><path class="st0" d="M24,28.837c-1.24,0-2.25,1.009-2.25,2.25c0,0.03,0.004,0.067,0.012,0.106c0.049,1.206,1.023,2.144,2.238,2.144  s2.189-0.938,2.238-2.144c0.008-0.039,0.012-0.076,0.012-0.106C26.25,29.847,25.24,28.837,24,28.837z M24,32.337  c-0.681,0-1.226-0.532-1.24-1.21c-0.001-0.028-0.004-0.056-0.009-0.083c0.023-0.669,0.574-1.206,1.249-1.206  c0.169,0,0.329,0.034,0.476,0.094c0.141,0.058,0.268,0.145,0.377,0.248c0.004,0.004,0.01,0.005,0.015,0.01  c0.225,0.218,0.369,0.519,0.381,0.855c-0.005,0.027-0.008,0.055-0.009,0.083C25.226,31.806,24.681,32.337,24,32.337z"/></svg>