<?xml version="1.0" encoding="utf-8"?>
<!-- Generator: Adobe Illustrator 26.1.0, SVG Export Plug-In . SVG Version: 6.00 Build 0)  -->
<svg version="1.1" id="Layer_1" xmlns="http://www.w3.org/2000/svg" xmlns:xlink="http://www.w3.org/1999/xlink" x="0px" y="0px"
	 viewBox="0 0 489 131" style="enable-background:new 0 0 489 131;" xml:space="preserve">
<style type="text/css">
	.st0{fill:#025159;}
	.st1{fill:url(#SVGID_1_);}
</style>
<path class="st0" d="M114.9,31h6.9l7,23.6c0.5,1.7,0.8,3.6,0.9,3.6h0.1c0,0,0.3-1.9,0.9-3.6L138,31h5.9l7.2,23.6
	c0.5,1.7,0.9,3.6,0.9,3.6h0.1c0,0,0.3-1.9,0.8-3.6l7.1-23.6h6.8L156,64.6h-7.1l-7-21.6c-0.5-1.7-0.9-3.7-0.9-3.7h-0.1
	c0,0-0.4,1.9-0.9,3.7L133,64.6h-7.2L114.9,31L114.9,31z"/>
<path class="st0" d="M190.2,30.2c9.5,0,14.6,7.1,14.6,15.8c0,0.9-0.2,2.8-0.2,2.8H180c0.3,7.4,5.6,11.1,11.6,11.1c6,0,10-3.9,10-3.9
	l2.7,4.7c0,0-5,4.8-13.1,4.8c-10.6,0-17.8-7.7-17.8-17.6C173.4,37.1,180.6,30.2,190.2,30.2L190.2,30.2z M198.2,43.9
	c-0.2-5.8-3.8-8.6-8.1-8.6c-4.9,0-8.9,3.1-9.9,8.6H198.2z"/>
<path class="st0" d="M252.6,43.6h1.5V43c0-5.5-3.1-7.4-7.4-7.4c-5.2,0-9.4,3.3-9.4,3.3l-2.7-4.7c0,0,4.9-4,12.6-4
	c8.5,0,13.3,4.7,13.3,13.2v21.3h-6v-3.2c0-1.5,0.1-2.7,0.1-2.7h-0.1c0,0-2.7,6.7-10.8,6.7c-5.8,0-11.4-3.5-11.4-10.3
	C232.3,44.1,247,43.6,252.6,43.6L252.6,43.6z M245.2,60.2c5.5,0,9-5.7,9-10.7v-1.1h-1.7c-4.9,0-13.6,0.3-13.6,6.4
	C238.9,57.6,241,60.2,245.2,60.2L245.2,60.2z"/>
<path class="st0" d="M272.9,31h6.3v5.9c0,1.4-0.1,2.5-0.1,2.5h0.1c1.5-4.9,5.5-8.8,10.6-8.8c0.9,0,1.7,0.1,1.7,0.1v6.4
	c0,0-0.9-0.2-1.9-0.2c-4.1,0-7.9,2.9-9.4,7.9c-0.6,1.9-0.8,4-0.8,6.1v13.8h-6.5V31z"/>
<path class="st0" d="M314.8,30.2c9.5,0,14.6,7.1,14.6,15.8c0,0.9-0.2,2.8-0.2,2.8h-24.6c0.3,7.4,5.6,11.1,11.6,11.1
	c6,0,10-3.9,10-3.9l2.7,4.7c0,0-5,4.8-13,4.8c-10.6,0-17.8-7.7-17.8-17.6C298,37.1,305.2,30.2,314.8,30.2L314.8,30.2z M322.8,43.9
	c-0.2-5.8-3.8-8.6-8.1-8.6c-4.9,0-8.9,3.1-9.9,8.6H322.8L322.8,43.9z"/>
<path class="st0" d="M134.5,82c8.4,0,12.6,4.9,12.6,4.9l-3.1,4.5c0,0-3.6-3.9-9.3-3.9c-6.8,0-11.7,5.1-11.7,12s4.9,12.1,11.9,12.1
	c6.3,0,10.4-4.5,10.4-4.5l2.6,4.7c0,0-4.7,5.4-13.4,5.4c-10.6,0-18-7.5-18-17.6S123.9,82,134.5,82L134.5,82z"/>
<path class="st0" d="M173.6,82c10,0,18.2,7.4,18.2,17.6s-8.1,17.7-18.2,17.7c-10.1,0-18.2-7.5-18.2-17.7S163.6,82,173.6,82z
	 M173.6,111.7c6.4,0,11.6-5.1,11.6-12.1s-5.2-12-11.6-12s-11.6,5-11.6,12S167.3,111.7,173.6,111.7z"/>
<path class="st0" d="M202.1,82.8h6.3v4.5c0,1.3-0.1,2.5-0.1,2.5h0.1c1.6-3.9,6.3-7.7,11.6-7.7c5.7,0,9,2.6,10.1,7.7h0.1
	c1.9-4.1,6.5-7.7,12-7.7c7.6,0,11.1,4.3,11.1,12.9v21.6h-6.5V96.3c0-4.7-0.9-8.5-6-8.5c-4.7,0-8.2,4-9.5,8.6
	c-0.3,1.4-0.5,2.9-0.5,4.7v15.4h-6.5V96.3c0-4.4-0.7-8.4-5.9-8.4s-8.4,4.1-9.6,8.8c-0.3,1.3-0.4,2.9-0.4,4.4v15.4h-6.5L202.1,82.8
	L202.1,82.8z"/>
<path class="st0" d="M265.6,82.8h6.3v4.5c0,1.3-0.1,2.5-0.1,2.5h0.1c1.6-3.9,6.3-7.7,11.6-7.7c5.7,0,9,2.6,10.1,7.7h0.1
	c1.9-4.1,6.5-7.7,12-7.7c7.6,0,11.1,4.3,11.1,12.9v21.6h-6.5V96.3c0-4.7-0.9-8.5-6-8.5c-4.7,0-8.2,4-9.5,8.6
	c-0.3,1.4-0.5,2.9-0.5,4.7v15.4H288V96.3c0-4.4-0.7-8.4-5.9-8.4c-5.2,0-8.4,4.1-9.6,8.8c-0.3,1.3-0.4,2.9-0.4,4.4v15.4h-6.5
	L265.6,82.8L265.6,82.8z"/>
<path class="st0" d="M328.6,82.8h6.5v20.1c0,4.7,0.9,8.4,6.3,8.4c6.9,0,10.9-6.1,10.9-12.7V82.8h6.5v33.7h-6.3v-4.5
	c0-1.4,0.1-2.5,0.1-2.5h-0.1c-1.4,3.3-5.8,7.7-12.4,7.7c-7.6,0-11.5-4-11.5-12.9L328.6,82.8L328.6,82.8z"/>
<path class="st0" d="M371.6,82.8h6.3v4.5c0,1.3-0.1,2.5-0.1,2.5h0.1c1.3-2.9,5.3-7.7,12.7-7.7c7.9,0,11.6,4.3,11.6,12.9v21.6h-6.5
	V96.4c0-4.7-1-8.5-6.4-8.5c-5.4,0-9.2,3.4-10.6,8.2c-0.4,1.3-0.5,2.9-0.5,4.5v15.8h-6.5V82.8L371.6,82.8z"/>
<path class="st0" d="M414.3,69.5h6.5v6.6h-6.5V69.5z M414.4,82.8h6.5v33.7h-6.5V82.8L414.4,82.8z"/>
<path class="st0" d="M435,88.5h-4.4v-5.2h4.6v-9.7h6.3v9.7h8.1v5.2h-8.1v15c0,6.7,4.7,7.6,7.2,7.6c0.9,0,1.5-0.1,1.5-0.1v5.7
	c0,0-0.9,0.1-2.3,0.1c-4.3,0-12.9-1.3-12.9-12.6L435,88.5L435,88.5z"/>
<path class="st0" d="M457.6,123.5c0,0,1.9,1.4,3.9,1.4c2.6,0,4.8-1.9,6.1-4.9l1.7-3.9l-14.1-33.3h7.2l8.4,22
	c0.7,1.7,1.3,4.1,1.3,4.1h0.1c0,0,0.5-2.3,1.1-4l8.2-22.1h7l-15.8,39.7c-2.1,5.2-6.2,7.9-10.9,7.9c-3.8,0-6.5-2.1-6.5-2.1
	L457.6,123.5L457.6,123.5z"/>
<linearGradient id="SVGID_1_" gradientUnits="userSpaceOnUse" x1="6.0809" y1="36.3784" x2="91.8909" y2="85.9184" gradientTransform="matrix(1 0 0 -1 0 132)">
	<stop  offset="0" style="stop-color:#0067EF"/>
	<stop  offset="0.45" style="stop-color:#CE5EFF"/>
	<stop  offset="0.75" style="stop-color:#FF8D42"/>
	<stop  offset="1" style="stop-color:#FF6700"/>
</linearGradient>
<path class="st1" d="M70.2,116.3H58.1c-16,0-29-13-29-29c0-1.1,0.1-2.1,0.2-3.1c-7.6-5.2-12.7-14-12.7-24c0-16,13-29,29-29h24.6
	c8.6,0,15.5,7,15.5,15.6s-7,15.5-15.5,15.5H58.1c-12,0-22.1,8.5-24.5,19.9c3.5,1.9,7.6,3,12,3h24.6c8.6,0,15.5,7,15.5,15.6
	S78.8,116.3,70.2,116.3L70.2,116.3z M33.1,86.4c0,0.3,0,0.6,0,0.9c0,13.8,11.2,25,25,25h12.1c6.4,0,11.5-5.2,11.5-11.5
	c0-6.4-5.2-11.6-11.5-11.6H45.6C41.1,89.2,36.9,88.2,33.1,86.4L33.1,86.4z M45.6,35.2c-13.8,0-25,11.2-25,25c0,7.9,3.7,15,9.5,19.6
	c3.3-12.4,14.6-21.5,28-21.5h12.1c6.4,0,11.6-5.2,11.6-11.6s-5.2-11.5-11.6-11.5L45.6,35.2L45.6,35.2z M10.9,111.6
	c-6,0-10.9-4.9-10.9-10.8c0-6,4.9-10.9,10.9-10.9s10.9,4.9,10.9,10.9C21.7,106.7,16.8,111.6,10.9,111.6z M10.9,93.9
	c-3.8,0-6.9,3.1-6.9,6.9c0,3.8,3.1,6.8,6.9,6.8s6.9-3.1,6.9-6.8C17.7,96.9,14.6,93.9,10.9,93.9z M70.4,21.7c-6,0-10.9-4.9-10.9-10.9
	S64.4,0,70.4,0c6,0,10.8,4.9,10.8,10.9S76.4,21.7,70.4,21.7z M70.4,4c-3.8,0-6.9,3.1-6.9,6.9s3.1,6.9,6.9,6.9c3.8,0,6.8-3.1,6.8-6.9
	S74.2,4,70.4,4z"/>
</svg>
